<svg id="visual" viewBox="0 0 900 600" width="900" height="600" xmlns="http://www.w3.org/2000/svg" xmlns:xlink="http://www.w3.org/1999/xlink" version="1.1"><path d="M0 223L21.5 201.7C43 180.3 86 137.7 128.8 136.2C171.7 134.7 214.3 174.3 257.2 180C300 185.7 343 157.3 385.8 158.3C428.7 159.3 471.3 189.7 514.2 193.8C557 198 600 176 642.8 156.3C685.7 136.7 728.3 119.3 771.2 127.3C814 135.3 857 168.7 878.5 185.3L900 202L900 0L878.5 0C857 0 814 0 771.2 0C728.3 0 685.7 0 642.8 0C600 0 557 0 514.2 0C471.3 0 428.7 0 385.8 0C343 0 300 0 257.2 0C214.3 0 171.7 0 128.8 0C86 0 43 0 21.5 0L0 0Z" fill="#b8c66c" stroke-linecap="round" stroke-linejoin="miter"></path></svg>